<svg id="Layer_1" data-name="Layer 1" xmlns="http://www.w3.org/2000/svg" xmlns:xlink="http://www.w3.org/1999/xlink" version="1.1" viewBox="0 0 713 572.6">
  <defs>
    <filter id="grime" x="0%" y="0%" width="100%" height="100%">
      <feTurbulence baseFrequency="0.85" numOctaves="5" result="noise" type="fractalNoise"/>
      <feDiffuseLighting in="noise" result="paper" surfaceScale="2">
        <feDistantLight azimuth="65" elevation="90"/>
      </feDiffuseLighting>
      <feComposite in="paper" in2="SourceGraphic" operator="in" result="mask"/>
      <feBlend in="SourceGraphic" in2="mask" mode="multiply"/>
    </filter>
    <linearGradient id="linear-gradient" x1="101.36" y1="1898.37" x2="632.51" y2="2513.4" gradientTransform="translate(22 -1870.4)" gradientUnits="userSpaceOnUse">
      <stop offset="0" stop-color="#c6ccb8"/>
      <stop offset="1" stop-color="#878a79"/>
    </linearGradient>
    <linearGradient id="linear-gradient-2" x1="-29.93" y1="1785.44" x2="578.68" y2="2423.86" gradientTransform="translate(22 -1870.4)" gradientUnits="userSpaceOnUse">
      <stop offset="0" stop-color="#5c7480"/>
      <stop offset=".09" stop-color="#8cb0c2"/>
      <stop offset=".5" stop-color="#5c7480"/>
      <stop offset="1" stop-color="#2d3d45"/>
    </linearGradient>
    <filter id="grime-2" data-name="grime" x="0%" y="0%" width="100%" height="100%">
      <feTurbulence baseFrequency="0.85" numOctaves="5" result="noise" type="fractalNoise"/>
      <feDiffuseLighting in="noise" result="paper" surfaceScale="2">
        <feDistantLight azimuth="65" elevation="90"/>
      </feDiffuseLighting>
      <feComposite in="paper" in2="SourceGraphic" operator="in" result="mask"/>
      <feBlend in="SourceGraphic" in2="mask" mode="multiply"/>
    </filter>
    <radialGradient id="radial-gradient" cx="357.22" cy="40.8" fx="357.22" fy="40.8" r="307.71" gradientTransform="translate(0 574.7) scale(1 -1.01)" gradientUnits="userSpaceOnUse">
      <stop offset="0" stop-color="#8d99a1"/>
      <stop offset="1" stop-color="#50686e"/>
    </radialGradient>
    <linearGradient id="linear-gradient-3" x1="334.63" y1="1899.01" x2="334.63" y2="2375.1" gradientTransform="translate(22 -1870.4)" gradientUnits="userSpaceOnUse">
      <stop offset="0" stop-color="#50696e"/>
      <stop offset=".33" stop-color="#e6e9ec"/>
      <stop offset="1" stop-color="#4e696f"/>
    </linearGradient>
    <radialGradient id="radial-gradient-2" cx="563.13" cy="1843.41" fx="582.95" fy="1843.41" r="80.29" gradientTransform="translate(-14759.25 710.25) rotate(-90) scale(1.01 8.36) skewX(1.72)" gradientUnits="userSpaceOnUse">
      <stop offset="0" stop-color="#000"/>
      <stop offset=".93" stop-color="#000" stop-opacity="0"/>
    </radialGradient>
    <radialGradient id="radial-gradient-3" cx=".76" cy="1836.5" fx="20.58" fy="1836.5" r="80.29" gradientTransform="translate(-15272.34 133.39) rotate(-90) scale(1.01 8.36) skewX(1.72)" gradientUnits="userSpaceOnUse">
      <stop offset="0" stop-color="#000"/>
      <stop offset=".93" stop-color="#000" stop-opacity="0"/>
    </radialGradient>
    <filter id="grime-3" data-name="grime" x="0%" y="0%" width="100%" height="100%">
      <feTurbulence baseFrequency="0.85" numOctaves="5" result="noise" type="fractalNoise"/>
      <feDiffuseLighting in="noise" result="paper" surfaceScale="2">
        <feDistantLight azimuth="65" elevation="90"/>
      </feDiffuseLighting>
      <feComposite in="paper" in2="SourceGraphic" operator="in" result="mask"/>
      <feBlend in="SourceGraphic" in2="mask" mode="multiply"/>
    </filter>
    <radialGradient id="radial-gradient-4" cx="337.05" cy="1898.87" fx="337.05" fy="1898.87" r="306.63" gradientTransform="translate(22 -1904.34) scale(1 1.01)" gradientUnits="userSpaceOnUse">
      <stop offset="0" stop-color="#8d99a1"/>
      <stop offset="1" stop-color="#50686e"/>
    </radialGradient>
    <linearGradient id="linear-gradient-4" x1="630.04" y1="1903.55" x2="630.04" y2="2377.28" gradientTransform="translate(22 -1870.4)" gradientUnits="userSpaceOnUse">
      <stop offset="0" stop-color="#8d99a1"/>
      <stop offset="1" stop-color="#50686e"/>
    </linearGradient>
    <linearGradient id="linear-gradient-5" x1="39.32" y1="1909.64" x2="40.69" y2="2364.9" gradientTransform="translate(22 -1870.4)" gradientUnits="userSpaceOnUse">
      <stop offset="0" stop-color="#8d99a1"/>
      <stop offset="1" stop-color="#50686e"/>
    </linearGradient>
    <filter id="innershadow" width="200%" height="200%">
      <feGaussianBlur in="SourceAlpha" result="blur" stdDeviation="20"/>
      <feOffset dx="22" dy="22"/>
      <feComposite in2="SourceAlpha" k2="-1" k3="1" operator="arithmetic" result="shadowDiff"/>
      <feFlood flood-color="#000" flood-opacity="0.75"/>
      <feComposite in2="shadowDiff" operator="in"/>
      <feComposite in2="SourceGraphic" result="firstfilter"/>
      <feGaussianBlur in="firstfilter" result="blur2" stdDeviation="20"/>
      <feOffset dx="-22" dy="-22"/>
      <feComposite in2="firstfilter" k2="-1" k3="1" operator="arithmetic" result="shadowDiff"/>
      <feFlood flood-color="#000" flood-opacity="0.75"/>
      <feComposite in2="shadowDiff" operator="in"/>
      <feComposite in2="firstfilter"/>
    </filter>
    <radialGradient id="radial-gradient-5" cx="334.31" cy="1998.03" fx="334.31" fy="1998.03" r="465.25" gradientTransform="translate(22 -1907.13) scale(1 .98)" gradientUnits="userSpaceOnUse">
      <stop offset="0" stop-color="#7895a7"/>
      <stop offset=".5" stop-color="#587789"/>
      <stop offset=".69" stop-color="#446577"/>
      <stop offset="1" stop-color="#1a3f52"/>
    </radialGradient>
  </defs>
  <g id="outer-frame" filter="url(#grime)">
    <path d="M704.17,570.6l-696.17.6c-4.42,0-8-3.58-8-8L22,8.3C22,3.88,25.58.3,30,.3L684,0c4.4,0,7.7,4.2,7.7,8.6l21.3,554c-.06,4.4-4.43,8-8.83,8Z" fill="#000" stroke-width="0"/>
    <path d="M32.7,1.6h648.15c4.42,0,8,3.58,8,8l20.62,551c0,4.42-3.58,8-8,8H10c-4.42,0-8-3.58-8-8L24.7,9.6c0-4.42,3.58-8,8-8Z" fill="url(#linear-gradient)" stroke-width="0"/>
    <path d="M32.2,4.6h648c2.21,0,4,1.79,4,4l21.77,553c0,2.21-1.79,4-4,4H9.5c-2.21,0-4-1.79-4-4L28.2,8.6c0-2.21,1.79-4,4-4Z" fill="#120702" stroke-width="0"/>
    <path d="M33.7,6.6h645c2.21,0,4,1.79,4,4l21.77,549c0,2.21-1.79,4-4,4H11c-2.21,0-4-1.79-4-4L29.7,10.6c0-2.21,1.79-4,4-4Z" fill="url(#linear-gradient-2)" stroke-width="0"/>
  </g>
  <g id="inner-frame" filter="url(#grime-2)">
    <path d="M43.6,19.49l-4.04,500.79c0,2.27,1.81,4.1,4.04,4.1h622.49c2.23,0,4.04-1.84,4.04-4.1V19.49c0-2.27-1.81-4.1-4.04-4.1H47.65c-2.23,0-4.04,1.84-4.04,4.1Z" fill="#141410" stroke-width="0"/>
    <path id="beige-strip" d="M45.4,21.74l-3.94,496.27c0,2.27,1.81,4.1,4.04,4.1h618.75c2.23,0,4.04-1.84,4.04-4.1V21.74c0-2.27-1.81-4.1-4.04-4.1H49.45c-2.23,0-4.04,1.84-4.04,4.1Z" fill="#eae5cf" stroke-width="0"/>
    <polygon id="screenconsistency" points="663.14 516.69 48.43 515.49 50.9 22.46 663.14 22.46 663.14 516.69" fill="url(#radial-gradient)" stroke-width="0"/>
    <path id="edge-shines" d="M74.82,50.86S342.31,1.95,642.89,52.91c0,0,25.98,146.83-3.13,441.42,0,0-329.67,29.53-567.97-6.15,0,.1-29.12-269.05,3.03-437.32Z" fill="url(#linear-gradient-3)" stroke-width="0"/>
    <path id="corner-shading-2" d="M74.82,50.86S342.31,1.95,642.89,52.91c0,0,25.98,146.83-3.13,441.42,0,0-329.67,29.53-567.97-6.15,0,.1-29.12-269.05,3.03-437.32Z" fill="url(#radial-gradient-2)" isolation="isolate" opacity=".3" stroke-width="0"/>
    <path id="corner-shading-3" d="M74.82,50.86S342.31,1.95,642.89,52.91c0,0,25.98,146.83-3.13,441.42,0,0-329.67,29.53-567.97-6.15,0,.1-29.12-269.05,3.03-437.32Z" fill="url(#radial-gradient-3)" isolation="isolate" opacity=".3" stroke-width="0"/>
  </g>
  <g id="inset-sides" filter="url(#grime-3)">
    <path d="M76.01,50.86S342.31,1.95,642.89,52.91l21.48-29.84v-.62H50.9l25.1,28.4Z" fill="url(#radial-gradient-4)" stroke-width="0"/>
    <path d="M642.89,52.91s25.98,146.83-3.13,441.42h0l24.47,22.35h0l.1-494.22-21.43,30.45h0Z" fill="url(#linear-gradient-4)" stroke-width="0"/>
    <path d="M76.01,50.97l-25.1-28.51-2.8,494.22h.56l24.26-29.33c-1.77-16.61-28.06-273.67,3.08-436.39Z" fill="url(#linear-gradient-5)" stroke-width="0"/>
    <path d="M639.76,494.33c-9.5.82-332.12,28.2-566.78-6.97h-.05l-24.77,29.33h616.12l-24.52-22.35Z" fill="#8d99a1" stroke-width="0"/>
  </g>
  <g id="screen">
    <path id="ScreenFaceBlack" d="M632.42,243.12c-.67-21.43-1.75-42.79-3.24-64.09-1.35-18.46-2.86-36.91-4.55-55.37-1.52-15.28-2.33-27.38-10.01-40.91-12.44-22.05-40.24-22.66-61.88-25.84-24.57-3.59-49.44-5.95-74.21-8.41-26.19-2.56-52.47-4.51-78.76-4.51,0,0-17.29-.62-43.47-.62s-43.47.62-43.47.62c-26.29,0-52.57,1.95-78.76,4.41-24.77,2.36-49.64,4.82-74.21,8.41-21.64,3.18-49.44,3.79-61.88,25.84-7.68,13.64-8.49,25.63-10.01,40.91-1.72,18.46-3.34,36.91-4.55,55.37-1.52,21.33-2.53,42.66-3.24,64.09-.51,13.64-.81,27.27-.91,40.91.1,11.28.4,22.56.61,33.84.51,21.94.81,43.89,2.12,65.83.71,12.3,1.42,24.51,2.63,36.71,1.01,10.77,2.43,21.74,7.78,31.38,7.18,12.82,20.93,17.33,33.97,21.22s27.2,5.95,40.74,7.59c11.42,1.44,25.38,3.28,36.8,4.1,4.15.1,34.17,2.77,70.27,4.61,26.39,1.33,55.1,2.26,81.99,2.56,30.33-.31,64.1-1.03,90.59-2.56,28.71-1.54,49.03-3.9,49.03-3.9,12.44-.51,38.01-3.38,49.44-4.82,13.55-1.64,27.6-3.69,40.74-7.59s26.79-8.41,33.97-21.22c5.36-9.64,6.77-20.61,7.78-31.38,1.21-12.2,1.92-24.51,2.63-36.71,1.31-21.94,1.62-43.89,2.12-65.83.2-11.28.51-22.56.61-33.84.1-13.64-.2-27.27-.71-40.81Z" fill="#0c0a00" stroke-width="0"/>
    <g id="ScreenFaceBlue" filter="url(#innershadow)">
      <path d="M356.31,476.9c-63.69,0-153.17-7.59-154.08-7.69-11.12-.72-22.44-1.74-33.97-3.18-12.23-1.54-26.49-3.38-39.23-7.18-13.04-3.79-23.46-7.38-28.71-16.51-4.45-7.69-5.66-16.71-6.67-26.97-1.11-10.77-1.72-21.94-2.43-32.71l-.2-2.77c-1.11-17.84-1.52-36.09-1.82-53.73-.1-3.38-.3-14.25-.3-14.25-.2-9.33-.4-19.07-.51-28.61.1-13.53.4-26.76.91-39.48.71-21.12,1.82-42.04,3.24-62.14,1.21-17.53,2.83-35.58,4.55-53.63l.2-1.95c1.31-13.53,2.33-23.38,8.69-34.35,8.59-14.87,28.01-17.33,46.81-19.58,2.83-.31,5.66-.72,8.49-1.13,24.16-3.49,48.93-5.74,73-8l.81-.1c21.23-2.05,49.34-4.31,77.85-4.31h.3c.1,0,15.97-.51,39.63-.51h6.98c23.76,0,39.53.51,39.63.51h.3c28.51,0,56.62,2.26,77.85,4.31l.81.1c24.06,2.26,48.83,4.61,73,8,2.73.41,5.66.72,8.39,1.13,18.81,2.36,38.22,4.72,46.81,19.58,6.37,10.97,7.28,20.81,8.69,34.35l.2,1.95c1.82,18.05,3.34,36.09,4.55,53.63,1.42,20.1,2.53,40.91,3.24,62.14.51,12.61.71,25.94.91,39.48-.1,9.54-.3,19.17-.51,28.61,0,0-.2,10.87-.3,14.25-.4,17.64-.81,35.89-1.82,53.73l-.2,2.77c-.71,10.77-1.31,21.84-2.43,32.71-1.01,10.25-2.22,19.38-6.67,26.97-5.26,9.02-15.67,12.71-28.71,16.51-12.84,3.69-26.99,5.64-39.23,7.18-11.42,1.44-22.85,2.46-33.87,3.18-1.01,0-89.48,7.69-154.18,7.69Z" fill="url(#radial-gradient-5)" stroke-width="0"/>
    </g>
  </g>
</svg>